<?xml version="1.0" encoding="utf-8"?><!-- Uploaded to: SVG Repo, www.svgrepo.com, Generator: SVG Repo Mixer Tools -->
<svg width="800px" height="800px" viewBox="0 0 16 16" xmlns="http://www.w3.org/2000/svg" fill="#000000" class="bi bi-distribute-vertical">
  <path fill-rule="evenodd" d="M1 1.5a.5.5 0 0 0 .5.5h13a.5.5 0 0 0 0-1h-13a.5.5 0 0 0-.5.5zm0 13a.5.5 0 0 0 .5.5h13a.5.5 0 0 0 0-1h-13a.5.5 0 0 0-.5.5z"/>
  <path d="M2 7a1 1 0 0 1 1-1h10a1 1 0 0 1 1 1v2a1 1 0 0 1-1 1H3a1 1 0 0 1-1-1V7z"/>
</svg>