<svg id="sprite" aria-hidden="true"
    style="position: absolute; width: 0; height: 0; overflow: hidden;" version="1.1"
    xmlns="http://www.w3.org/2000/svg" xmlns:xlink="http://www.w3.org/1999/xlink">
    <defs>
        <symbol id="icon-menu-1" viewBox="0 0 16 16">
            <path fill-rule="evenodd" clip-rule="evenodd"
                d="M7 1H1V7H7V1ZM7 9H1V15H7V9ZM9 1H15V7H9V1ZM15 9H9V15H15V9Z" />
        </symbol>


        <symbol id="icon-device" viewBox="0 0 24 24" xmlns="http://www.w3.org/2000/svg">
            <path d="M17.4444 10H6.55556C6.143 10 5.74733 10.1639 5.45561 10.4556C5.16389 10.7473 5 11.143 5 11.5556V22.4444C5 22.857 5.16389 23.2527 5.45561 23.5444C5.74733 23.8361 6.143 24 6.55556 24H17.4444C17.857 24 18.2527 23.8361 18.5444 23.5444C18.8361 23.2527 19 22.857 19 22.4444V11.5556C19 11.143 18.8361 10.7473 18.5444 10.4556C18.2527 10.1639 17.857 10 17.4444 10ZM17.4444 20.8889C17.4444 21.3014 17.2806 21.6971 16.9888 21.9888C16.6971 22.2806 16.3014 22.4444 15.8889 22.4444C15.4763 22.4444 15.0807 22.2806 14.7889 21.9888C14.4972 21.6971 14.3333 21.3014 14.3333 20.8889C14.3333 20.4763 14.4972 20.0807 14.7889 19.7889C15.0807 19.4972 15.4763 19.3333 15.8889 19.3333C16.3014 19.3333 16.6971 19.4972 16.9888 19.7889C17.2806 20.0807 17.4444 20.4763 17.4444 20.8889ZM17.4444 12.7222C17.4444 13.0316 17.3215 13.3284 17.1027 13.5472C16.8839 13.766 16.5872 13.8889 16.2778 13.8889H7.72222C7.4128 13.8889 7.11606 13.766 6.89726 13.5472C6.67847 13.3284 6.55556 13.0316 6.55556 12.7222C6.55556 12.4128 6.67847 12.1161 6.89726 11.8973C7.11606 11.6785 7.4128 11.5556 7.72222 11.5556H16.2778C16.5872 11.5556 16.8839 11.6785 17.1027 11.8973C17.3215 12.1161 17.4444 12.4128 17.4444 12.7222Z" />
            <path d="M8.45997 7.46L7.04997 6.05C8.31997 4.78 10.07 4 12 4C13.93 4 15.68 4.78 16.95 6.05L15.54 7.46C14.63 6.56 13.38 6 12 6C10.62 6 9.36997 6.56 8.45997 7.46Z" />
            <path d="M4.21997 3.22C6.20997 1.23 8.95997 0 12 0C15.04 0 17.79 1.23 19.77 3.23L18.36 4.64C16.74 3.01 14.49 2 12 2C9.50997 2 7.25997 3.01 5.62997 4.63L4.21997 3.22Z" />
        </symbol>


        <symbol id="icon-asset"  viewBox="0 0 100 100" xmlns="http://www.w3.org/2000/svg" xmlns:xlink="http://www.w3.org/1999/xlink" aria-hidden="true" role="img"
            class="iconify iconify--gis" preserveAspectRatio="xMidYMid meet">
            <path
                d="M49.368 11.228c-11.646-.171-27.826.079-31.156 9.027l-8.184 19.204a2.85 2.85 0 0 0-1.37-.865l-3.296-.927a2.86 2.86 0 0 0-3.534 1.983l-1.72 6.104a2.86 2.86 0 0 0 1.983 3.535l3.297.927c.11.03.22.04.33.059c-.63 1.569-1.023 3.295-1.023 4.322v22.32c0 1.145.48 1.674 1.243 1.922v5.947a4.008 4.008 0 0 0 4.017 4.017H20.73a4.008 4.008 0 0 0 4.017-4.017v-5.729h50.504v5.729a4.01 4.01 0 0 0 4.018 4.017h10.775a4.01 4.01 0 0 0 4.019-4.017v-5.947c.763-.248 1.24-.777 1.24-1.922v-22.32c0-1.027-.393-2.753-1.022-4.322c.11-.018.22-.028.33-.06l3.297-.926a2.86 2.86 0 0 0 1.982-3.535l-1.717-6.104a2.861 2.861 0 0 0-3.536-1.983l-3.295.927a2.855 2.855 0 0 0-1.37.865l-8.185-19.204c-3.57-9.084-20.773-8.856-32.42-9.027zm33.358 29.444c.194.576-.386.96-.993.995c0 0-1.984.168-4.72.389c-2.082-4.864-6.92-8.292-12.525-8.292c-6.151 0-11.373 4.13-13.048 9.754c-.464.006-1.003.026-1.435.026c-10.596 0-31.738-1.877-31.738-1.877c-.607-.036-1.187-.419-.993-.995c8.142-24.821 8.385-22.955 32.275-22.694c23.891.26 24.03-1.513 33.177 22.694zm-18.238-2.217a8.886 8.886 0 0 1 7.447 3.991c-4.785.356-10.292.719-15.424.93a8.879 8.879 0 0 1 7.977-4.921zM9.407 46.511c.072.106.142.213.221.317h-.31zm5.294 6.234c2.096-.035 13.348 3.753 13.348 3.753c1.405.395 2.642 3.051 2.635 4.511c-.021 4.917-12.71 3.21-17.86 3.23a2.63 2.63 0 0 1-2.635-2.634V55.38c0-1.46 2.416-2.6 4.512-2.635zm70.598 0c2.096.034 4.512 1.175 4.512 2.635v6.225a2.63 2.63 0 0 1-2.635 2.635c-5.15-.02-17.839 1.686-17.86-3.23c-.007-1.46 1.23-4.117 2.635-4.512c0 0 11.252-3.788 13.348-3.753z"
                ></path>
        </symbol>

        <symbol id="icon-company" viewBox="0 0 24 24">
            <path
                d="M11,3a1,1,0,0,0-1-1H3A1,1,0,0,0,2,3V22h9ZM9,18H4V16H9Zm0-4H4V12H9Zm0-4H4V8H9ZM9,6H4V4H9ZM21,8H14a1,1,0,0,0-1,1V22h9V9A1,1,0,0,0,21,8ZM17,20H15V18h2Zm0-4H15V14h2Zm0-4H15V10h2Zm3,8H18V18h2Zm0-4H18V14h2Zm0-4H18V10h2Z" />
        </symbol>

        <symbol id="icon-user" viewBox="0 0 24 24">
            <path
                d="M20.822 18.096c-3.439-.794-6.64-1.49-5.09-4.418 4.72-8.912 1.251-13.678-3.732-13.678-5.082 0-8.464 4.949-3.732 13.678 1.597 2.945-1.725 3.641-5.09 4.418-3.073.71-3.188 2.236-3.178 4.904l.004 1h23.99l.004-.969c.012-2.688-.092-4.222-3.176-4.935z" />
        </symbol>

        <symbol id="icon-users" viewBox="0 0 24 24">
            <path
                d="M10.644 17.08c2.866-.662 4.539-1.241 3.246-3.682-3.932-7.427-1.042-11.398 3.111-11.398 4.235 0 7.054 4.124 3.11 11.398-1.332 2.455.437 3.034 3.242 3.682 2.483.574 2.647 1.787 2.647 3.889v1.031h-18c0-2.745-.22-4.258 2.644-4.92zm-12.644 4.92h7.809c-.035-8.177 3.436-5.313 3.436-11.127 0-2.511-1.639-3.873-3.748-3.873-3.115 0-5.282 2.979-2.333 8.549.969 1.83-1.031 2.265-3.181 2.761-1.862.43-1.983 1.34-1.983 2.917v.773z" />
        </symbol>

        <symbol id="icon-about" xmlns="http://www.w3.org/2000/svg" fill="none" viewBox="0 0 24 24" stroke="currentColor" stroke-width="2">
            <circle cx="12" cy="12" r="10" stroke="currentColor"></circle>
            <path stroke="currentColor" d="M12 16v-4"></path>
            <circle cx="12" cy="8" r="1" fill="currentColor"></circle>
        </symbol>

        <symbol id="icon-audit" viewBox="0 0 24 24" fill="none" >
            <path d="M22 12C22 14.2091 20.2091 16 18 16C15.7909 16 14 14.2091 14 12C14 9.79086 15.7909 8 18 8C20.2091 8 22 9.79086 22 12Z" stroke="currentColor" stroke-width="1.5"/>
            <path d="M10 12C10 14.2091 8.20914 16 6 16C3.79086 16 2 14.2091 2 12C2 9.79086 3.79086 8 6 8C8.20914 8 10 9.79086 10 12Z" stroke="currentColor" stroke-width="1.5"/>
            <path d="M6 16H18" stroke="currentColor" stroke-width="1.5" stroke-linecap="round"/>
        </symbol>

        <symbol id="icon-map" viewBox="0 0 24 24">
            <path
                d="M12 0c-3.148 0-6 2.553-6 5.702 0 4.682 4.783 5.177 6 12.298 1.217-7.121 6-7.616 6-12.298 0-3.149-2.851-5.702-6-5.702zm0 8c-1.105 0-2-.895-2-2s.895-2 2-2 2 .895 2 2-.895 2-2 2zm12 16l-6.707-2.427-5.293 2.427-5.581-2.427-6.419 2.427 4-9 3.96-1.584c.38.516.741 1.08 1.061 1.729l-3.523 1.41-1.725 3.88 2.672-1.01 1.506-2.687-.635 3.044 4.189 1.789.495-2.021.465 2.024 4.15-1.89-.618-3.033 1.572 2.896 2.732.989-1.739-3.978-3.581-1.415c.319-.65.681-1.215 1.062-1.731l4.021 1.588 3.936 9z" />
        </symbol>

        <symbol id="icon-reports" version="1.1" xmlns="http://www.w3.org/2000/svg"
            xmlns:xlink="http://www.w3.org/1999/xlink"
            viewBox="0 0 512.001 512.001" xml:space="preserve">
            <g>
                <g>
                    <g>
                        <path d="M364.296,368.179V63.958c0.001-10.345-8.386-18.732-18.731-18.732h-54.269l-84.601,84.6
                            c-7.315,7.315-19.175,7.317-26.49,0c-7.315-7.315-7.315-19.175,0-26.49l58.109-58.109H41.346
                            c-10.345,0-18.732,8.387-18.732,18.732v304.22c0,10.345,8.387,18.732,18.732,18.732h304.219
                            C355.91,386.91,364.296,378.523,364.296,368.179z"/>
                        <path d="M470.656,170.317h-75.139c-6.897,0-12.488,5.591-12.488,12.488v185.374c0,20.691-16.774,37.463-37.463,37.463H160.192
                            c-6.897,0-12.488,5.591-12.488,12.488v75.139c0,10.345,8.387,18.732,18.732,18.732h304.219c10.345,0,18.732-8.387,18.732-18.732
                            v-304.22C489.388,178.704,481.001,170.317,470.656,170.317z"/>
                        <path d="M304.546,5.487c-7.313-7.315-19.175-7.315-26.49,0l-39.74,39.74h52.981l13.25-13.25
                            C311.861,24.663,311.861,12.802,304.546,5.487z"/>
                    </g>
                </g>
            </g>
        </symbol>

        <symbol id="icon-lightbulb"  viewBox="0 0 14 14" role="img" focusable="false" aria-hidden="true" xmlns="http://www.w3.org/2000/svg">
            <path
                d="m 8,10.5 -2,0 C 5.862,10.5 5.75,10.612 5.75,10.75 5.75,10.888 5.862,11 6,11 l 2,0 C 8.138,11 8.25,10.888 8.25,10.75 8.25,10.612 8.138,10.5 8,10.5 Z m 0,1 -2,0 C 5.862,11.5 5.75,11.612 5.75,11.75 5.75,11.888 5.862,12 6,12 l 2,0 C 8.138,12 8.25,11.888 8.25,11.75 8.25,11.612 8.138,11.5 8,11.5 Z m 0.125,1 -2.25,0 0.594,0.391 C 6.546,12.96 6.659,13 6.7765,13 l 0.4475,0 c 0.117,0 0.2305,-0.04 0.3075,-0.109 L 8.125,12.5 Z M 10,5.6005 C 10,7.385 8.393,8.592 8.393,10 l -2.7860002,0 c 0,-1.408 -1.6069999,-2.615 -1.6069999,-4.3995 0,-1.8615 1.499,-2.886 2.9984999,-2.886 C 8.4989999,2.7145 10,3.74 10,5.6005 Z m 2,-0.3455 0,0.686 -1.269,0 c 0.01,-0.1115 0.019,-0.224 0.019,-0.3405 0,-0.1185 -0.0085,-0.232 -0.0175,-0.345 l 1.2675,0 z m -5.3240002,-3.2765 0,-0.9785 0.6855001,0 0,0.982 c -0.121,-0.011 -0.242,-0.018 -0.3630001,-0.018 -0.1075,0 -0.215,0.01 -0.3225,0.014 z M 9.4364999,2.7505 10.221499,1.879 10.731,2.338 9.9295,3.2265 C 9.8045003,3.078 9.6329998,2.8905 9.4364999,2.7505 Z m -5.369,0.476 -0.8015,-0.8885 0.5095,-0.459 0.785,0.8715 c -0.196,0.14 -0.368,0.3275 -0.493,0.476 z M 3.269,5.941 l -1.2690001,0 0,-0.686 1.2675,0 c -0.009,0.113 -0.0175,0.227 -0.0175,0.3455 0,0.1165 0.009,0.229 0.019,0.3405 z" />
        </symbol>



        <symbol id="icon-alarm" version="1.1" 
            xmlns="http://www.w3.org/2000/svg" xmlns:xlink="http://www.w3.org/1999/xlink"
            viewBox="0 0 298.25 298.25" xml:space="preserve">
            <g>
                <path d="M232.125,149c0-46.116-37.384-83.5-83.5-83.5s-83.5,37.384-83.5,83.5v83.25h167V149z M148.208,118.25
                    c-16.956,0-30.75,13.794-30.75,30.75c0,4.143-3.357,7.5-7.5,7.5s-7.5-3.357-7.5-7.5c0-25.227,20.523-45.75,45.75-45.75
                    c4.143,0,7.5,3.357,7.5,7.5S152.351,118.25,148.208,118.25z"/>
                <path d="M249.156,247.25H49.842c-13.496,0-24.717,15.596-24.717,29.097v21.903h248v-21.903
                    C273.125,262.846,262.65,247.25,249.156,247.25z"/>
                <path d="M148.625,50c4.143,0,7.5-3.357,7.5-7.5v-35c0-4.143-3.357-7.5-7.5-7.5s-7.5,3.357-7.5,7.5v35
                    C141.125,46.643,144.482,50,148.625,50z"/>
                <path d="M89.819,60.445c1.39,2.406,3.91,3.751,6.502,3.751c1.272,0,2.563-0.324,3.743-1.006c3.587-2.071,4.816-6.658,2.745-10.245
                    l-17.5-30.311c-2.071-3.587-6.66-4.816-10.245-2.745c-3.587,2.071-4.816,6.658-2.745,10.245L89.819,60.445z"/>
                <path d="M23.761,84.306l30.311,17.5c1.182,0.682,2.471,1.006,3.743,1.006c2.592,0,5.113-1.345,6.502-3.751
                    c2.071-3.587,0.842-8.174-2.745-10.245l-30.311-17.5c-3.59-2.07-8.175-0.843-10.245,2.745
                    C18.944,77.647,20.174,82.234,23.761,84.306z"/>
                <path d="M198.186,63.19c1.182,0.682,2.471,1.006,3.743,1.006c2.592,0,5.113-1.345,6.502-3.751l17.5-30.311
                    c2.071-3.587,0.842-8.174-2.745-10.245c-3.589-2.071-8.176-0.843-10.245,2.745l-17.5,30.311
                    C193.369,56.532,194.599,61.119,198.186,63.19z"/>
                <path d="M240.436,102.812c1.272,0,2.563-0.324,3.743-1.006l30.311-17.5c3.587-2.071,4.816-6.658,2.745-10.245
                    c-2.072-3.588-6.66-4.815-10.245-2.745l-30.311,17.5c-3.587,2.071-4.816,6.658-2.745,10.245
                    C235.323,101.467,237.844,102.812,240.436,102.812z"/>
            </g>
        </symbol>

        <symbol id="icon-user-settings" viewBox="0 0 24 24">
            <path fill="none" stroke-width="1.3"
                d="M18.0003,20.9998 C16.3453,20.9998 15.0003,19.6538 15.0003,17.9998 C15.0003,16.3458 16.3453,14.9998 18.0003,14.9998 C19.6543,14.9998 21.0003,16.3458 21.0003,17.9998 C21.0003,19.6538 19.6543,20.9998 18.0003,20.9998 L18.0003,20.9998 Z M24.0003,17.9998 L21.0003,17.9998 L24.0003,17.9998 Z M20.1213,20.1218 L22.2423,22.2428 L20.1213,20.1218 Z M18.0003,23.9998 L18.0003,20.9998 L18.0003,23.9998 Z M13.7573,22.2428 L15.8783,20.1208 L13.7573,22.2428 Z M12.0003,17.9998 L15.0003,17.9998 L12.0003,17.9998 Z M15.8783,15.8788 L13.7573,13.7578 L15.8783,15.8788 Z M18.0003,14.9998 L18.0003,11.9998 L18.0003,14.9998 Z M20.1213,15.8788 L22.2423,13.7578 L20.1213,15.8788 Z M12.5,12.5 C11.2660678,11.4458897 9.77508483,11 8,11 C4.13400675,11 1,13.0294373 1,18 L1,23 L11,23 M8,11 C10.7614237,11 13,8.76142375 13,6 C13,3.23857625 10.7614237,1 8,1 C5.23857625,1 3,3.23857625 3,6 C3,8.76142375 5.23857625,11 8,11 Z" />
        </symbol>

        <symbol id="icon-settings" viewBox="-0.5 0 25 25" fill="none" xmlns="http://www.w3.org/2000/svg">
            <path d="M12 7.82001H22" stroke="currentColor" stroke-width="1.5" stroke-linecap="round" stroke-linejoin="round"/>
            <path d="M2 7.82001H4" stroke="currentColor" stroke-width="1.5" stroke-linecap="round" stroke-linejoin="round"/>
            <path d="M20 16.82H22" stroke="currentColor" stroke-width="1.5" stroke-linecap="round" stroke-linejoin="round"/>
            <path d="M2 16.82H12" stroke="currentColor" stroke-width="1.5" stroke-linecap="round" stroke-linejoin="round"/>
            <path d="M8 11.82C10.2091 11.82 12 10.0291 12 7.82001C12 5.61087 10.2091 3.82001 8 3.82001C5.79086 3.82001 4 5.61087 4 7.82001C4 10.0291 5.79086 11.82 8 11.82Z" stroke="currentColor" stroke-width="1.5" stroke-linecap="round" stroke-linejoin="round"/>
            <path d="M16 20.82C18.2091 20.82 20 19.0291 20 16.82C20 14.6109 18.2091 12.82 16 12.82C13.7909 12.82 12 14.6109 12 16.82C12 19.0291 13.7909 20.82 16 20.82Z" stroke="currentColor" stroke-width="1.5" stroke-linecap="round" stroke-linejoin="round"/>
        </symbol>

        <symbol id="icon-logout" viewBox="0 0 512 512">
            <path
                d="M421.24,269.93h30V429.84a48.72,48.72,0,0,1-48.66,48.66H82.77a48.72,48.72,0,0,1-48.66-48.66V110A48.72,48.72,0,0,1,82.77,61.37H242.68v30H82.77A18.68,18.68,0,0,0,64.11,110V429.84A18.68,18.68,0,0,0,82.77,448.5H402.58a18.68,18.68,0,0,0,18.66-18.66Zm-69-236.43v30h74.4L249.5,240.68l21.21,21.21L447.89,84.71v74.4h30V33.5Z" />
        </symbol>

        <symbol id="icon-white-lableling" version="1.1" 
            xmlns="http://www.w3.org/2000/svg" xmlns:xlink="http://www.w3.org/1999/xlink"
            viewBox="0 0 512 512" xml:space="preserve">
            <g>
                <path class="st0" d="M200,474.296C200,495.123,216.884,512,237.704,512h2.517c20.82,0,37.704-16.877,37.704-37.704V338.517H200
                    V474.296z"/>
                <path class="st0" d="M440.784,65.911l-0.028-0.079h-13.198V43.58C427.544,19.508,408.05,0.015,383.978,0H85.618
                    C61.547,0.015,42.053,19.508,42.039,43.58v78.332c0.014,24.072,19.508,43.565,43.579,43.579h298.36
                    c24.072-0.014,43.565-19.507,43.579-43.579V97.455h6.988c3.429,0,6.21,2.78,6.21,6.21v7.807v46.089
                    c0,8.564-5.22,16.292-13.184,19.494l-0.449,0.178l-171.187,82.282l0.021,0.036c-18.516,7.864-30.624,25.989-30.624,46.175v15.75
                    h29.205v-15.75c0-8.585,5.212-16.3,13.176-19.501l0.456-0.185l171.173-82.275l-0.021-0.036
                    c18.531-7.864,30.638-25.989,30.638-46.167V96.414C469.954,76.193,459.979,65.925,440.784,65.911z M398.352,121.911
                    c-0.006,4.007-1.582,7.515-4.214,10.16c-2.645,2.63-6.146,4.207-10.16,4.214H85.618c-4.014-0.007-7.516-1.583-10.161-4.214
                    c-2.63-2.645-4.206-6.154-4.214-10.16V43.58c0.008-4.014,1.583-7.515,4.214-10.168c2.645-2.624,6.146-4.2,10.161-4.207h298.36
                    c4.014,0.008,7.515,1.583,10.16,4.207c2.632,2.652,4.207,6.154,4.214,10.168V121.911z"/>
            </g>
        </symbol>

        <symbol id="icon-groups" viewBox="0 0 24 24">
            <path d="M18 0h6v6h-6v-6zm-18 24h16v-24h-16v24zm18-9h6v-6h-6v6zm0 9h6v-6h-6v6z" />
        </symbol>

        <symbol id="triangle-1" viewBox="0 0 24 24">
            <path
                d="m2.095 19.882 9.248-16.5c.133-.237.384-.384.657-.384.272 0 .524.147.656.384l9.248 16.5c.064.115.096.241.096.367 0 .385-.309.749-.752.749h-18.496c-.44 0-.752-.36-.752-.749 0-.126.031-.252.095-.367z"
                fill-rule="nonzero" />
        </symbol>

        <symbol id="icon-pencil" xmlns="http://www.w3.org/2000/svg" viewBox="0 0 24 24">
            <path
                d="M7.127 22.562l-7.127 1.438 1.438-7.128 5.689 5.69zm1.414-1.414l11.228-11.225-5.69-5.692-11.227 11.227 5.689 5.69zm9.768-21.148l-2.816 2.817 5.691 5.691 2.816-2.819-5.691-5.689z" />
        </symbol>
        
        <symbol id="icon-trash-can-solid" viewBox="0 0 24 24">
            <path
                d="M5.755,20.283,4,8H20L18.245,20.283A2,2,0,0,1,16.265,22H7.735A2,2,0,0,1,5.755,20.283ZM21,4H16V3a1,1,0,0,0-1-1H9A1,1,0,0,0,8,3V4H3A1,1,0,0,0,3,6H21a1,1,0,0,0,0-2Z" />
        </symbol>

        <symbol id="icon-checkbox-3" viewBox="0 0 24 24">
            <path d="M0 0v24h24v-24h-24zm10.041 17l-4.5-4.319 1.395-1.435 3.08 2.937 7.021-7.183 1.422 1.409-8.418 8.591z" />
        </symbol>


        <symbol id="icon-view-more" viewBox="0 0 16 16" xmlns="http://www.w3.org/2000/svg">
            <path d="m 2 6.007812 c -1.105469 0 -2 0.894532 -2 2 c 0 1.101563 0.894531 2 2 2 s 2 -0.898437 2 -2 c 0 -1.105468 -0.894531 -2 -2 -2 z m 6 0 c -1.105469 0 -2 0.894532 -2 2 c 0 1.101563 0.894531 2 2 2 s 2 -0.898437 2 -2 c 0 -1.105468 -0.894531 -2 -2 -2 z m 6 0 c -1.105469 0 -2 0.894532 -2 2 c 0 1.101563 0.894531 2 2 2 s 2 -0.898437 2 -2 c 0 -1.105468 -0.894531 -2 -2 -2 z m 0 0" />
        </symbol>


    </defs>
</svg>